<svg width="31" height="24" viewBox="0 0 31 24" fill="none" xmlns="http://www.w3.org/2000/svg">
<path d="M17.1567 20.25H9.89163C6.79003 20.25 4.26667 17.7267 4.26667 14.6251V8.85947C4.26667 5.9762 2.82958 3.30739 0.422521 1.72031C-0.00975775 1.43531 -0.129101 0.853876 0.155897 0.421598C0.440896 -0.0107278 1.02228 -0.130118 1.45465 0.154974C2.82874 1.06097 3.94351 2.2559 4.74067 3.63167C4.91293 3.82466 6.30202 5.29699 8.57919 5.29699H19.3748C22.3201 5.24191 24.6254 8.19769 23.8554 11.0406L22.6126 15.9939C21.9839 18.4998 19.7404 20.25 17.1567 20.25ZM5.90513 6.64234C6.06099 7.36238 6.14166 8.10483 6.14166 8.85947V14.6251C6.14166 16.6928 7.8239 18.375 9.89163 18.375H17.1567C18.8792 18.375 20.3748 17.2082 20.794 15.5376L22.0367 10.5844C22.4943 8.89509 21.1243 7.13931 19.3748 7.17198H8.57914C7.54926 7.17198 6.65283 6.94993 5.90513 6.64234ZM9.42289 22.8281C9.42289 22.1809 8.89822 21.6563 8.25102 21.6563C6.69609 21.7182 6.69745 23.9387 8.25102 24C8.89822 24 9.42289 23.4753 9.42289 22.8281ZM18.751 22.8281C18.751 22.1809 18.2263 21.6563 17.5791 21.6563C16.0242 21.7182 16.0255 23.9387 17.5791 24C18.2263 24 18.751 23.4753 18.751 22.8281ZM20.3123 9.98446C20.3123 9.46668 19.8925 9.04697 19.3748 9.04697H8.95414C7.71027 9.09647 7.71121 10.8729 8.95414 10.922H19.3748C19.8925 10.922 20.3123 10.5022 20.3123 9.98446Z" fill="#3D3D3D"/>
<circle cx="23.001" cy="8" r="7" fill="#46A358" stroke="white" stroke-width="2"/>
<path d="M25.121 8.83C25.121 9.47 24.891 10.01 24.431 10.45C23.971 10.89 23.421 11.11 22.781 11.11C22.1476 11.1233 21.5976 10.9067 21.131 10.46C20.6643 10.0067 20.4376 9.46 20.451 8.82C20.451 8.57333 20.4876 8.33333 20.561 8.1C20.641 7.86667 20.7343 7.66333 20.841 7.49C20.9343 7.33667 21.1043 7.08333 21.351 6.73L23.001 4.4H24.251L22.661 6.65C22.7476 6.63 22.8443 6.62 22.951 6.62C23.5376 6.62 24.0443 6.83667 24.471 7.27C24.9043 7.69667 25.121 8.21667 25.121 8.83ZM24.071 8.83C24.071 8.46333 23.9443 8.15333 23.691 7.9C23.4376 7.64667 23.1343 7.52 22.781 7.52C22.421 7.52 22.1143 7.64667 21.861 7.9C21.6143 8.14667 21.491 8.45667 21.491 8.83C21.491 9.21 21.6143 9.52333 21.861 9.77C22.1076 10.0167 22.4143 10.14 22.781 10.14C23.141 10.14 23.4443 10.0167 23.691 9.77C23.9443 9.51667 24.071 9.20333 24.071 8.83Z" fill="white"/>
</svg>
