<svg width="18" height="18" viewBox="0 0 18 18" fill="none" xmlns="http://www.w3.org/2000/svg">
<g clip-path="url(#clip0_9_1453)">
<path d="M12.8646 15.1873H7.41669C5.0909 15.1873 3.19871 13.2951 3.19871 10.9693V6.64588C3.19871 4.48381 2.12108 2.48255 0.316103 1.29245C-0.00804932 1.07874 -0.0975409 0.642736 0.11617 0.318584C0.329881 -0.00560306 0.765845 -0.0951298 1.09007 0.118652C2.12045 0.798029 2.95638 1.69407 3.55414 2.72572C3.68332 2.87043 4.72495 3.97449 6.43253 3.97449H14.5278C16.7364 3.93319 18.4651 6.14963 17.8877 8.28147L16.9558 11.9958C16.4843 13.8749 14.802 15.1873 12.8646 15.1873ZM4.42734 4.98332C4.54421 5.52326 4.6047 6.08 4.6047 6.64588V10.9693C4.6047 12.5198 5.86616 13.7813 7.41669 13.7813H12.8646C14.1562 13.7813 15.2777 12.9064 15.592 11.6536L16.5239 7.93932C16.8671 6.67259 15.8397 5.35598 14.5278 5.38048H6.4325C5.66022 5.38048 4.98801 5.21398 4.42734 4.98332ZM7.06519 17.1205C7.06519 16.6352 6.67176 16.2418 6.18645 16.2418C5.02046 16.2882 5.02147 17.9533 6.18645 17.9993C6.67176 17.9993 7.06519 17.6059 7.06519 17.1205ZM14.06 17.1205C14.06 16.6352 13.6666 16.2418 13.1813 16.2418C12.0153 16.2882 12.0163 17.9533 13.1813 17.9993C13.6666 17.9993 14.06 17.6059 14.06 17.1205ZM15.2308 7.48948C15.2308 7.10121 14.9161 6.78648 14.5278 6.78648H6.71369C5.78096 6.8236 5.78166 8.15567 6.71369 8.19247H14.5278C14.9161 8.19247 15.2308 7.87774 15.2308 7.48948Z" fill="currentColor"/>
</g>
<defs>
<clipPath id="clip0_9_1453">
<rect width="18" height="18" fill="currentColor"/>
</clipPath>
</defs>
</svg>
